<svg xmlns="http://www.w3.org/2000/svg" xmlns:xlink="http://www.w3.org/1999/xlink" width="24" height="24" viewBox="0 0 24 24"><defs><path id="eil4a" d="M1401.743 66.713a.948.948 0 0 1-.692.277c-.018 0-.033.01-.051.01-.4 0-.74-.239-.9-.579L1396.68 63H1386a1 1 0 0 1 0-2h10.845a.939.939 0 0 1 .793.257l2.362 2.362V50a1 1 0 0 1 2 0v15.92a.938.938 0 0 1-.257.793zM1394 59h-10.679l-3.421 3.421c-.16.34-.5.579-.9.579-.018 0-.033-.01-.05-.01a.948.948 0 0 1-.693-.277.938.938 0 0 1-.257-.792V47a4 4 0 0 1 4-4h12a4 4 0 0 1 4 4v8a4 4 0 0 1-4 4zm2-12a2 2 0 0 0-2-2h-12a2 2 0 0 0-2 2v12.62l2.362-2.363a.938.938 0 0 1 .793-.257H1394a2 2 0 0 0 2-2zm-5 3h2v2h-2zm-4 0h2v2h-2zm-4 0h2v2h-2z"/></defs><g><g transform="translate(-1378 -43)"><use fill="#b3b9c5" xlink:href="#eil4a"/></g></g></svg>