<svg xmlns="http://www.w3.org/2000/svg" xmlns:xlink="http://www.w3.org/1999/xlink" width="24" height="20" viewBox="0 0 24 20"><defs><path id="mgs1a" d="M38 416.983v-6.99A3.997 3.997 0 0 1 42 406h16c2.21 0 4 1.788 4 3.994v9.984a3.997 3.997 0 0 1-4 3.994H41.437l.238.239c.403.404.403 1.06 0 1.463a1.028 1.028 0 0 1-1.458 0l-1.923-1.93a1.028 1.028 0 0 1-.297-.759c-.007-.276.09-.553.299-.764l1.939-1.946a1.036 1.036 0 0 1 1.469 0 1.045 1.045 0 0 1 0 1.475l-.224.225H58c1.105 0 2-.894 2-1.997v-5.99H40v2.995a1 1 0 0 1-2 0zm2-6.99v1.998h20v-1.997a1.998 1.998 0 0 0-2-1.997H42c-1.105 0-2 .894-2 1.997z"/></defs><g><g transform="translate(-38 -406)"><use fill="#b3b9c5" xlink:href="#mgs1a"/></g></g></svg>