<svg xmlns="http://www.w3.org/2000/svg" xmlns:xlink="http://www.w3.org/1999/xlink" width="20" height="20" viewBox="0 0 20 20"><defs><path id="6udpa" d="M1879.704 54.235l-2.939-2.939a1.039 1.039 0 1 0-1.469 1.47l1.235 1.234H1869a1 1 0 0 0 0 2h7.54l-1.246 1.246a1.033 1.033 0 0 0 1.46 1.46l2.92-2.92c.115-.115.188-.252.238-.395.17-.382.105-.843-.208-1.156zM1871 46a1 1 0 0 0-1-1c-5.523 0-10 4.477-10 10s4.477 10 10 10a1 1 0 1 0 0-2 8 8 0 0 1 0-16 1 1 0 0 0 1-1z"/></defs><g><g transform="translate(-1860 -45)"><use fill="#b3b9c5" xlink:href="#6udpa"/></g></g></svg>