<svg xmlns="http://www.w3.org/2000/svg" xmlns:xlink="http://www.w3.org/1999/xlink" width="20" height="24" viewBox="0 0 20 24"><defs><path id="gco9a" d="M54 207h-8a1 1 0 0 1 0-2h8a1 1 0 0 1 0 2zm0 4h-8a1 1 0 0 1 0-2h8a1 1 0 0 1 0 2zm5-8a1 1 0 0 1 1 1v9a4 4 0 0 1-4 4H44a4 4 0 0 1-4-4v-16a4 4 0 0 1 4-4h10.943c.295-.025.598.063.824.29l3.911 3.91c.118.118.192.26.242.408.051.12.08.253.08.392v2a1 1 0 0 1-1 1h-3a4 4 0 0 1-4-4v-2h-8a2 2 0 0 0-2 2v16a2 2 0 0 0 2 2h12a2 2 0 0 0 2-2v-9a1 1 0 0 1 1-1zm-5-6a2 2 0 0 0 2 2h2v-.522L54.522 195H54z"/></defs><g><g transform="translate(-40 -193)"><use fill="#b3b9c5" xlink:href="#gco9a"/></g></g></svg>