<svg xmlns="http://www.w3.org/2000/svg" xmlns:xlink="http://www.w3.org/1999/xlink" width="20" height="20" viewBox="0 0 20 20"><defs><path id="hcn5a" d="M1542 82V62h20v20zm2-10a8 8 0 1 0 16 0 8 8 0 0 0-16 0z"/><path id="hcn5b" d="M1552 64a8 8 0 1 1 0 16 8 8 0 0 1 0-16z"/><path id="hcn5d" d="M1548.32 70.322a1.045 1.045 0 0 1 1.478 0l2.218 2.217 2.217-2.217a1.045 1.045 0 0 1 1.478 1.478l-2.911 2.91c-.216.216-.502.31-.784.298a1.033 1.033 0 0 1-.784-.297l-2.911-2.911a1.045 1.045 0 0 1 0-1.478z"/><clipPath id="hcn5c"><use fill="#fff" xlink:href="#hcn5a"/></clipPath></defs><g><g transform="translate(-1542 -62)"><use fill="#1897d8" xlink:href="#hcn5b"/><use fill="#fff" fill-opacity="0" stroke="#fff" stroke-miterlimit="50" stroke-width="4" clip-path="url(&quot;#hcn5c&quot;)" xlink:href="#hcn5b"/></g><g transform="translate(-1542 -62)"><use fill="#fff" xlink:href="#hcn5d"/></g></g></svg>