<svg xmlns="http://www.w3.org/2000/svg" xmlns:xlink="http://www.w3.org/1999/xlink" width="24" height="20" viewBox="0 0 24 20"><defs><path id="odbwa" d="M61.707 344.325a1.026 1.026 0 0 0-1.455 0l-.252.254V339A4 4 0 0 0 56 335H44a4 4 0 0 0-4 4 1 1 0 1 0 2 0 2 2 0 0 1 2-2h12a2 2 0 0 1 2 2v5.508l-.21-.212a1.032 1.032 0 0 0-1.464 0 1.042 1.042 0 0 0 0 1.47l1.927 1.938c.213.214.496.308.775.296.278.012.558-.081.77-.294l1.909-1.92a1.035 1.035 0 0 0 0-1.46zm-21.473-2.029l-1.938 1.939a1.038 1.038 0 0 0 0 1.469 1.041 1.041 0 0 0 1.472 0l.232-.233V351a4 4 0 0 0 4 4h12a4 4 0 0 0 4-4 1 1 0 1 0-2 0 2 2 0 0 1-2 2H44a2 2 0 0 1-2-2v-5.569l.243.244a1.035 1.035 0 0 0 1.462 0 1.031 1.031 0 0 0 0-1.46l-1.918-1.92a1.024 1.024 0 0 0-.775-.295 1.03 1.03 0 0 0-.778.296z"/></defs><g><g transform="translate(-38 -335)"><use xlink:href="#odbwa"/></g></g></svg>