<svg xmlns="http://www.w3.org/2000/svg" xmlns:xlink="http://www.w3.org/1999/xlink" width="24" height="20" viewBox="0 0 24 20"><defs><path id="1otya" d="M61 278a1 1 0 0 1-1-1v-3H40v6a2 2 0 0 0 2 2h16.52l-.224-.225a1.048 1.048 0 0 1 0-1.477 1.035 1.035 0 0 1 1.47 0l1.938 1.948c.21.211.306.49.3.766a1.03 1.03 0 0 1-.298.76l-1.923 1.933a1.027 1.027 0 0 1-1.458 0 1.04 1.04 0 0 1 0-1.466l.238-.24H42A4 4 0 0 1 38 280v-10a4 4 0 0 1 4-4h16a4 4 0 0 1 4 4v7a1 1 0 0 1-1 1zm-3-10H42a2 2 0 0 0-2 2v2h20v-2a2 2 0 0 0-2-2z"/></defs><g><g transform="translate(-38 -266)"><use xlink:href="#1otya"/></g></g></svg>