<svg xmlns="http://www.w3.org/2000/svg" xmlns:xlink="http://www.w3.org/1999/xlink" width="22" height="22" viewBox="0 0 22 22"><defs><path id="ebrua" d="M1339 57h-.23a8.933 8.933 0 0 1-1.127 2.735l.782.782a2.034 2.034 0 1 1-2.876 2.876l-.774-.774a8.934 8.934 0 0 1-2.775 1.15V64a2 2 0 0 1-4 0v-.23a8.935 8.935 0 0 1-2.775-1.15l-.774.773a2.034 2.034 0 0 1-2.876-2.876l.782-.782A8.933 8.933 0 0 1 1321.23 57H1321a2 2 0 1 1 0-4h.23c.228-1 .622-1.933 1.15-2.775l-.773-.774a2.033 2.033 0 1 1 2.876-2.876l.782.782A8.93 8.93 0 0 1 1328 46.23V46a2 2 0 1 1 4 0v.23c.984.224 1.903.61 2.735 1.127l.782-.782a2.034 2.034 0 1 1 2.876 2.876l-.774.774a8.934 8.934 0 0 1 1.15 2.775h.231a2 2 0 0 1 0 4zm-9-9a7 7 0 1 0 0 14 7 7 0 0 0 0-14zm0 12a5 5 0 1 1 0-10 5 5 0 0 1 0 10zm0-8a3 3 0 1 0 0 6 3 3 0 0 0 0-6z"/></defs><g><g transform="translate(-1319 -44)"><use xlink:href="#ebrua"/></g></g></svg>