<svg style="display:none" xmlns="http://www.w3.org/2000/symbol" xmlns:xlink="http://www.w3.org/1999/xlink">
	<symbol id="agenti" xmlns="http://www.w3.org/2000/symbol" xmlns:xlink="http://www.w3.org/1999/xlink" width="24" height="24" viewBox="0 0 24 24"><defs><path id="s18ra" d="M58 637H40a2 2 0 0 1-2-2v-20a2 2 0 0 1 2-2h18a4 4 0 0 1 4 4v16a4 4 0 0 1-4 4zm2-20a2 2 0 0 0-2-2H44v17a1 1 0 0 1-2 0v-17h-2v20h18a2 2 0 0 0 2-2zm-12 2h8a1 1 0 0 1 0 2h-8a1 1 0 0 1 0-2zm0 4h6a1 1 0 0 1 0 2h-6a1 1 0 0 1 0-2z"/></defs><g><g transform="translate(-38 -613)"><use xlink:href="#s18ra"/></g></g></symbol>
	<symbol id="calendar" xmlns="http://www.w3.org/2000/symbol" xmlns:xlink="http://www.w3.org/1999/xlink" width="20" height="22" viewBox="0 0 20 22"><defs><path id="86g2a" d="M996 716h-12a4 4 0 0 1-4-4v-12a4 4 0 0 1 4-4h1v-1a1 1 0 1 1 2 0v4a1 1 0 0 1-2 0v-1h-1a2 2 0 0 0-2 2v2h16v-2a2 2 0 0 0-2-2h-1v1a1 1 0 0 1-2 0v-4a1 1 0 1 1 2 0v1h1a4 4 0 0 1 4 4v12a4 4 0 0 1-4 4zm2-12h-16v8a2 2 0 0 0 2 2h12a2 2 0 0 0 2-2zm-3 8h-6a1 1 0 0 1 0-2h6a1 1 0 1 1 0 2zm0-4h-6a1 1 0 0 1 0-2h6a1 1 0 1 1 0 2zm-11 2h2v2h-2zm0-4h2v2h-2zm5-10h2v2h-2z"/></defs><g><g transform="translate(-980 -694)"><use xlink:href="#86g2a"/></g></g></symbol>
	<symbol id="chat_icon" xmlns="http://www.w3.org/2000/symbol" xmlns:xlink="http://www.w3.org/1999/xlink" width="24" height="24" viewBox="0 0 24 24"><defs><path id="eil4a" d="M1401.743 66.713a.948.948 0 0 1-.692.277c-.018 0-.033.01-.051.01-.4 0-.74-.239-.9-.579L1396.68 63H1386a1 1 0 0 1 0-2h10.845a.939.939 0 0 1 .793.257l2.362 2.362V50a1 1 0 0 1 2 0v15.92a.938.938 0 0 1-.257.793zM1394 59h-10.679l-3.421 3.421c-.16.34-.5.579-.9.579-.018 0-.033-.01-.05-.01a.948.948 0 0 1-.693-.277.938.938 0 0 1-.257-.792V47a4 4 0 0 1 4-4h12a4 4 0 0 1 4 4v8a4 4 0 0 1-4 4zm2-12a2 2 0 0 0-2-2h-12a2 2 0 0 0-2 2v12.62l2.362-2.363a.938.938 0 0 1 .793-.257H1394a2 2 0 0 0 2-2zm-5 3h2v2h-2zm-4 0h2v2h-2zm-4 0h2v2h-2z"/></defs><g><g transform="translate(-1378 -43)"><use xlink:href="#eil4a"/></g></g></symbol>
	<symbol id="depoziti" xmlns="http://www.w3.org/2000/symbol" xmlns:xlink="http://www.w3.org/1999/xlink" width="24" height="20" viewBox="0 0 24 20"><defs><path id="9409a" d="M60 495H42a4 4 0 0 1-4-4v-12a4 4 0 0 1 4-4h14a2 2 0 0 1 2 2v2h2a2 2 0 0 1 2 2v12a2 2 0 0 1-2 2zm-4-18H42a2 2 0 0 0-2 2h16zm4 4H40v10a2 2 0 0 0 2 2h18zm-5 4h2a1 1 0 0 1 1 1v2a1 1 0 0 1-1 1h-2a1 1 0 0 1-1-1v-2a1 1 0 0 1 1-1z"/></defs><g><g opacity=".65" transform="translate(-38 -475)"><use xlink:href="#9409a"/></g></g></symbol>
	<symbol id="goback" xmlns="http://www.w3.org/2000/symbol" xmlns:xlink="http://www.w3.org/1999/xlink" width="24" height="8" viewBox="0 0 24 8"><defs><path id="c4pva" d="M601 206h-19.502l1.21 1.202c.41.408.41 1.07 0 1.477a1.056 1.056 0 0 1-1.488 0l-2.929-2.91a1.03 1.03 0 0 1-.299-.785 1.03 1.03 0 0 1 .3-.784l2.928-2.91a1.056 1.056 0 0 1 1.487 0c.41.407.41 1.069 0 1.477l-1.24 1.233H601a1 1 0 0 1 0 2z"/></defs><g><g transform="translate(-578 -201)"><use xlink:href="#c4pva"/></g></g></symbol>
	<symbol id="image_descr" xmlns="http://www.w3.org/2000/symbol" xmlns:xlink="http://www.w3.org/1999/xlink" width="20" height="20" viewBox="0 0 20 20"><defs><path id="hcn5a" d="M1542 82V62h20v20zm2-10a8 8 0 1 0 16 0 8 8 0 0 0-16 0z"/><path id="hcn5b" d="M1552 64a8 8 0 1 1 0 16 8 8 0 0 1 0-16z"/><path id="hcn5d" d="M1548.32 70.322a1.045 1.045 0 0 1 1.478 0l2.218 2.217 2.217-2.217a1.045 1.045 0 0 1 1.478 1.478l-2.911 2.91c-.216.216-.502.31-.784.298a1.033 1.033 0 0 1-.784-.297l-2.911-2.911a1.045 1.045 0 0 1 0-1.478z"/><clipPath id="hcn5c"><use fill="#fff" xlink:href="#hcn5a"/></clipPath></defs><g><g transform="translate(-1542 -62)"><use fill="#1897d8" xlink:href="#hcn5b"/><use fill="#fff" fill-opacity="0" stroke="#fff" stroke-miterlimit="50" stroke-width="4" clip-path="url(&quot;#hcn5c&quot;)" xlink:href="#hcn5b"/></g><g transform="translate(-1542 -62)"><use fill="#fff" xlink:href="#hcn5d"/></g></g></symbol>
	<symbol id="konvertaciya" xmlns="http://www.w3.org/2000/symbol" xmlns:xlink="http://www.w3.org/1999/xlink" width="24" height="20" viewBox="0 0 24 20"><defs><path id="odbwa" d="M61.707 344.325a1.026 1.026 0 0 0-1.455 0l-.252.254V339A4 4 0 0 0 56 335H44a4 4 0 0 0-4 4 1 1 0 1 0 2 0 2 2 0 0 1 2-2h12a2 2 0 0 1 2 2v5.508l-.21-.212a1.032 1.032 0 0 0-1.464 0 1.042 1.042 0 0 0 0 1.47l1.927 1.938c.213.214.496.308.775.296.278.012.558-.081.77-.294l1.909-1.92a1.035 1.035 0 0 0 0-1.46zm-21.473-2.029l-1.938 1.939a1.038 1.038 0 0 0 0 1.469 1.041 1.041 0 0 0 1.472 0l.232-.233V351a4 4 0 0 0 4 4h12a4 4 0 0 0 4-4 1 1 0 1 0-2 0 2 2 0 0 1-2 2H44a2 2 0 0 1-2-2v-5.569l.243.244a1.035 1.035 0 0 0 1.462 0 1.031 1.031 0 0 0 0-1.46l-1.918-1.92a1.024 1.024 0 0 0-.775-.295 1.03 1.03 0 0 0-.778.296z"/></defs><g><g transform="translate(-38 -335)"><use xlink:href="#odbwa"/></g></g></symbol>
	<symbol id="krediti" xmlns="http://www.w3.org/2000/symbol" xmlns:xlink="http://www.w3.org/1999/xlink" width="24" height="20" viewBox="0 0 24 20"><defs><path id="mgs1a" d="M38 416.983v-6.99A3.997 3.997 0 0 1 42 406h16c2.21 0 4 1.788 4 3.994v9.984a3.997 3.997 0 0 1-4 3.994H41.437l.238.239c.403.404.403 1.06 0 1.463a1.028 1.028 0 0 1-1.458 0l-1.923-1.93a1.028 1.028 0 0 1-.297-.759c-.007-.276.09-.553.299-.764l1.939-1.946a1.036 1.036 0 0 1 1.469 0 1.045 1.045 0 0 1 0 1.475l-.224.225H58c1.105 0 2-.894 2-1.997v-5.99H40v2.995a1 1 0 0 1-2 0zm2-6.99v1.998h20v-1.997a1.998 1.998 0 0 0-2-1.997H42c-1.105 0-2 .894-2 1.997z"/></defs><g><g transform="translate(-38 -406)"><use xlink:href="#mgs1a"/></g></g></symbol>
	<symbol id="logo" xmlns="http://www.w3.org/2000/symbol" xmlns:xlink="http://www.w3.org/1999/xlink" width="50" height="50" viewBox="0 0 50 50"><defs><path id="7b3ea" d="M30 80V30h50v50z"/></defs><g><g transform="translate(-30 -30)"><use xlink:href="#7b3ea"/></g></g></symbol>
	<symbol id="logout" xmlns="http://www.w3.org/2000/symbol" xmlns:xlink="http://www.w3.org/1999/xlink" width="20" height="20" viewBox="0 0 20 20"><defs><path id="6udpa" d="M1879.704 54.235l-2.939-2.939a1.039 1.039 0 1 0-1.469 1.47l1.235 1.234H1869a1 1 0 0 0 0 2h7.54l-1.246 1.246a1.033 1.033 0 0 0 1.46 1.46l2.92-2.92c.115-.115.188-.252.238-.395.17-.382.105-.843-.208-1.156zM1871 46a1 1 0 0 0-1-1c-5.523 0-10 4.477-10 10s4.477 10 10 10a1 1 0 1 0 0-2 8 8 0 0 1 0-16 1 1 0 0 0 1-1z"/></defs><g><g transform="translate(-1860 -45)"><use xlink:href="#6udpa"/></g></g></symbol>
	<symbol id="perevodi" xmlns="http://www.w3.org/2000/symbol" xmlns:xlink="http://www.w3.org/1999/xlink" width="24" height="20" viewBox="0 0 24 20"><defs><path id="1otya" d="M61 278a1 1 0 0 1-1-1v-3H40v6a2 2 0 0 0 2 2h16.52l-.224-.225a1.048 1.048 0 0 1 0-1.477 1.035 1.035 0 0 1 1.47 0l1.938 1.948c.21.211.306.49.3.766a1.03 1.03 0 0 1-.298.76l-1.923 1.933a1.027 1.027 0 0 1-1.458 0 1.04 1.04 0 0 1 0-1.466l.238-.24H42A4 4 0 0 1 38 280v-10a4 4 0 0 1 4-4h16a4 4 0 0 1 4 4v7a1 1 0 0 1-1 1zm-3-10H42a2 2 0 0 0-2 2v2h20v-2a2 2 0 0 0-2-2z"/></defs><g><g transform="translate(-38 -266)"><use xlink:href="#1otya"/></g></g></symbol>
	<symbol id="platezhi" xmlns="http://www.w3.org/2000/symbol" xmlns:xlink="http://www.w3.org/1999/xlink" width="20" height="24" viewBox="0 0 20 24"><defs><path id="gco9a" d="M54 207h-8a1 1 0 0 1 0-2h8a1 1 0 0 1 0 2zm0 4h-8a1 1 0 0 1 0-2h8a1 1 0 0 1 0 2zm5-8a1 1 0 0 1 1 1v9a4 4 0 0 1-4 4H44a4 4 0 0 1-4-4v-16a4 4 0 0 1 4-4h10.943c.295-.025.598.063.824.29l3.911 3.91c.118.118.192.26.242.408.051.12.08.253.08.392v2a1 1 0 0 1-1 1h-3a4 4 0 0 1-4-4v-2h-8a2 2 0 0 0-2 2v16a2 2 0 0 0 2 2h12a2 2 0 0 0 2-2v-9a1 1 0 0 1 1-1zm-5-6a2 2 0 0 0 2 2h2v-.522L54.522 195H54z"/></defs><g><g transform="translate(-40 -193)"><use xlink:href="#gco9a"/></g></g></symbol>
	<symbol id="point" xmlns="http://www.w3.org/2000/symbol" xmlns:xlink="http://www.w3.org/1999/xlink" width="12" height="12" viewBox="0 0 12 12"><defs><path id="8bqfa" d="M586 428a6 6 0 1 1 0 12 6 6 0 0 1 0-12z"/><clipPath id="8bqfb"><use fill="#fff" xlink:href="#8bqfa"/></clipPath></defs><g><g transform="translate(-580 -428)"><use fill="#fff" fill-opacity="0" stroke="#1897d8" stroke-miterlimit="50" stroke-width="4" clip-path="url(&quot;#8bqfb&quot;)" xlink:href="#8bqfa"/></g></g></symbol>
	<symbol id="settings" xmlns="http://www.w3.org/2000/symbol" xmlns:xlink="http://www.w3.org/1999/xlink" width="22" height="22" viewBox="0 0 22 22"><defs><path id="ebrua" d="M1339 57h-.23a8.933 8.933 0 0 1-1.127 2.735l.782.782a2.034 2.034 0 1 1-2.876 2.876l-.774-.774a8.934 8.934 0 0 1-2.775 1.15V64a2 2 0 0 1-4 0v-.23a8.935 8.935 0 0 1-2.775-1.15l-.774.773a2.034 2.034 0 0 1-2.876-2.876l.782-.782A8.933 8.933 0 0 1 1321.23 57H1321a2 2 0 1 1 0-4h.23c.228-1 .622-1.933 1.15-2.775l-.773-.774a2.033 2.033 0 1 1 2.876-2.876l.782.782A8.93 8.93 0 0 1 1328 46.23V46a2 2 0 1 1 4 0v.23c.984.224 1.903.61 2.735 1.127l.782-.782a2.034 2.034 0 1 1 2.876 2.876l-.774.774a8.934 8.934 0 0 1 1.15 2.775h.231a2 2 0 0 1 0 4zm-9-9a7 7 0 1 0 0 14 7 7 0 0 0 0-14zm0 12a5 5 0 1 1 0-10 5 5 0 0 1 0 10zm0-8a3 3 0 1 0 0 6 3 3 0 0 0 0-6z"/></defs><g><g transform="translate(-1319 -44)"><use xlink:href="#ebrua"/></g></g></symbol>
	<symbol id="filtr" xmlns="http://www.w3.org/2000/symbol" xmlns:xlink="http://www.w3.org/1999/xlink" width="8" height="5" viewBox="0 0 8 5"><defs><path id="1i8ma" d="M671.32 963.322a1.045 1.045 0 0 1 1.478 0l2.218 2.217 2.217-2.217a1.045 1.045 0 0 1 1.478 1.478l-2.911 2.91c-.216.216-.502.31-.784.298a1.033 1.033 0 0 1-.784-.297l-2.911-2.911a1.045 1.045 0 0 1 0-1.478z"/></defs><g><g transform="translate(-671 -963)"><use fill="#1897d8" xlink:href="#1i8ma"/></g></g></symbol>
	<symbol id="sotrudniki" xmlns="http://www.w3.org/2000/symbol" xmlns:xlink="http://www.w3.org/1999/xlink" width="16" height="21" viewBox="0 0 16 21"><defs><path id="nz88a" d="M57 565a1 1 0 0 1-1-1 6 6 0 0 0-12 0 1 1 0 1 1-2 0 8 8 0 1 1 16 0 1 1 0 0 1-1 1zm-7-11a5 5 0 1 1 0-10 5 5 0 0 1 0 10zm0-8a3 3 0 1 0 0 6 3 3 0 0 0 0-6z"/></defs><g><g transform="translate(-42 -544)"><use xlink:href="#nz88a"/></g></g></symbol>

</svg>